<svg width="21" height="21" viewBox="0 0 21 21" fill="none" xmlns="http://www.w3.org/2000/svg">
<path d="M10.3487 0.348846C4.83491 0.348846 0.348816 4.83467 0.348816 10.3487C0.348816 15.8627 4.83491 20.3485 10.3487 20.3485C15.8628 20.3485 20.3486 15.8627 20.3486 10.3487C20.3486 4.83467 15.8626 0.348846 10.3487 0.348846ZM10.3487 18.8887C5.63979 18.8887 1.80865 15.0576 1.80865 10.3487C1.80865 5.63977 5.63979 1.80867 10.3487 1.80867C15.0577 1.80867 18.8888 5.63973 18.8888 10.3484C18.8888 15.0576 15.0577 18.8887 10.3487 18.8887Z" fill="#266AEA" stroke="#266AEA" stroke-width="0.4"/>
<path d="M13.7549 10.2487H10.6919V5.96923C10.6919 5.51084 10.3204 5.13932 9.862 5.13932C9.40361 5.13932 9.03208 5.51084 9.03208 5.96923V11.0786C9.03208 11.537 9.40361 11.9085 9.862 11.9085H13.7549C14.2133 11.9085 14.5848 11.537 14.5848 11.0786C14.5848 10.6202 14.2133 10.2487 13.7549 10.2487Z" fill="#266AEA" stroke="#266AEA" stroke-width="0.2"/>
</svg>
